<mxfile host="app.diagrams.net" modified="2022-04-14T07:19:55.319Z" agent="5.0 (Windows NT 10.0; Win64; x64) AppleWebKit/537.36 (KHTML, like Gecko) Chrome/99.0.4844.82 Safari/537.36" etag="CYjIrCW-9ubJtOM8gWgu" version="17.4.4" type="github">
  <diagram id="R2lEEEUBdFMjLlhIrx00" name="Page-1">
    <mxGraphModel dx="816" dy="455" grid="1" gridSize="10" guides="1" tooltips="1" connect="1" arrows="1" fold="1" page="1" pageScale="1" pageWidth="850" pageHeight="1100" math="0" shadow="0" extFonts="Permanent Marker^https://fonts.googleapis.com/css?family=Permanent+Marker">
      <root>
        <mxCell id="0" />
        <mxCell id="1" parent="0" />
        <mxCell id="-oJr7ti3T9aXIyevSBhr-3" value="bikorot&#xa;" style="shape=table;startSize=30;container=1;collapsible=0;childLayout=tableLayout;fontStyle=1;align=center;" vertex="1" parent="1">
          <mxGeometry x="30" y="160" width="180" height="150" as="geometry" />
        </mxCell>
        <mxCell id="-oJr7ti3T9aXIyevSBhr-4" value="" style="shape=tableRow;horizontal=0;startSize=0;swimlaneHead=0;swimlaneBody=0;top=0;left=0;bottom=0;right=0;collapsible=0;dropTarget=0;fillColor=none;points=[[0,0.5],[1,0.5]];portConstraint=eastwest;" vertex="1" parent="-oJr7ti3T9aXIyevSBhr-3">
          <mxGeometry y="30" width="180" height="40" as="geometry" />
        </mxCell>
        <mxCell id="-oJr7ti3T9aXIyevSBhr-5" value="name" style="shape=partialRectangle;html=1;whiteSpace=wrap;connectable=0;fillColor=#dae8fc;top=0;left=0;bottom=0;right=0;overflow=hidden;strokeColor=#6c8ebf;" vertex="1" parent="-oJr7ti3T9aXIyevSBhr-4">
          <mxGeometry width="60" height="40" as="geometry">
            <mxRectangle width="60" height="40" as="alternateBounds" />
          </mxGeometry>
        </mxCell>
        <mxCell id="-oJr7ti3T9aXIyevSBhr-6" value="id" style="shape=partialRectangle;html=1;whiteSpace=wrap;connectable=0;fillColor=#dae8fc;top=0;left=0;bottom=0;right=0;overflow=hidden;strokeColor=#6c8ebf;" vertex="1" parent="-oJr7ti3T9aXIyevSBhr-4">
          <mxGeometry x="60" width="60" height="40" as="geometry">
            <mxRectangle width="60" height="40" as="alternateBounds" />
          </mxGeometry>
        </mxCell>
        <mxCell id="-oJr7ti3T9aXIyevSBhr-7" value="פרטי ביקורת" style="shape=partialRectangle;html=1;whiteSpace=wrap;connectable=0;fillColor=none;top=0;left=0;bottom=0;right=0;overflow=hidden;" vertex="1" parent="-oJr7ti3T9aXIyevSBhr-4">
          <mxGeometry x="120" width="60" height="40" as="geometry">
            <mxRectangle width="60" height="40" as="alternateBounds" />
          </mxGeometry>
        </mxCell>
        <mxCell id="-oJr7ti3T9aXIyevSBhr-8" value="" style="shape=tableRow;horizontal=0;startSize=0;swimlaneHead=0;swimlaneBody=0;top=0;left=0;bottom=0;right=0;collapsible=0;dropTarget=0;fillColor=none;points=[[0,0.5],[1,0.5]];portConstraint=eastwest;" vertex="1" parent="-oJr7ti3T9aXIyevSBhr-3">
          <mxGeometry y="70" width="180" height="40" as="geometry" />
        </mxCell>
        <mxCell id="-oJr7ti3T9aXIyevSBhr-9" value="ביקורת במפחט 300" style="shape=partialRectangle;html=1;whiteSpace=wrap;connectable=0;fillColor=none;top=0;left=0;bottom=0;right=0;overflow=hidden;" vertex="1" parent="-oJr7ti3T9aXIyevSBhr-8">
          <mxGeometry width="60" height="40" as="geometry">
            <mxRectangle width="60" height="40" as="alternateBounds" />
          </mxGeometry>
        </mxCell>
        <mxCell id="-oJr7ti3T9aXIyevSBhr-10" value="0" style="shape=partialRectangle;html=1;whiteSpace=wrap;connectable=0;fillColor=none;top=0;left=0;bottom=0;right=0;overflow=hidden;" vertex="1" parent="-oJr7ti3T9aXIyevSBhr-8">
          <mxGeometry x="60" width="60" height="40" as="geometry">
            <mxRectangle width="60" height="40" as="alternateBounds" />
          </mxGeometry>
        </mxCell>
        <mxCell id="-oJr7ti3T9aXIyevSBhr-11" value="" style="shape=partialRectangle;html=1;whiteSpace=wrap;connectable=0;fillColor=none;top=0;left=0;bottom=0;right=0;overflow=hidden;" vertex="1" parent="-oJr7ti3T9aXIyevSBhr-8">
          <mxGeometry x="120" width="60" height="40" as="geometry">
            <mxRectangle width="60" height="40" as="alternateBounds" />
          </mxGeometry>
        </mxCell>
        <mxCell id="-oJr7ti3T9aXIyevSBhr-12" value="" style="shape=tableRow;horizontal=0;startSize=0;swimlaneHead=0;swimlaneBody=0;top=0;left=0;bottom=0;right=0;collapsible=0;dropTarget=0;fillColor=none;points=[[0,0.5],[1,0.5]];portConstraint=eastwest;" vertex="1" parent="-oJr7ti3T9aXIyevSBhr-3">
          <mxGeometry y="110" width="180" height="40" as="geometry" />
        </mxCell>
        <mxCell id="-oJr7ti3T9aXIyevSBhr-13" value="ביקורת גדוד 401" style="shape=partialRectangle;html=1;whiteSpace=wrap;connectable=0;fillColor=none;top=0;left=0;bottom=0;right=0;overflow=hidden;" vertex="1" parent="-oJr7ti3T9aXIyevSBhr-12">
          <mxGeometry width="60" height="40" as="geometry">
            <mxRectangle width="60" height="40" as="alternateBounds" />
          </mxGeometry>
        </mxCell>
        <mxCell id="-oJr7ti3T9aXIyevSBhr-14" value="1" style="shape=partialRectangle;html=1;whiteSpace=wrap;connectable=0;fillColor=none;top=0;left=0;bottom=0;right=0;overflow=hidden;" vertex="1" parent="-oJr7ti3T9aXIyevSBhr-12">
          <mxGeometry x="60" width="60" height="40" as="geometry">
            <mxRectangle width="60" height="40" as="alternateBounds" />
          </mxGeometry>
        </mxCell>
        <mxCell id="-oJr7ti3T9aXIyevSBhr-15" value="" style="shape=partialRectangle;html=1;whiteSpace=wrap;connectable=0;fillColor=none;top=0;left=0;bottom=0;right=0;overflow=hidden;" vertex="1" parent="-oJr7ti3T9aXIyevSBhr-12">
          <mxGeometry x="120" width="60" height="40" as="geometry">
            <mxRectangle width="60" height="40" as="alternateBounds" />
          </mxGeometry>
        </mxCell>
        <mxCell id="-oJr7ti3T9aXIyevSBhr-44" style="edgeStyle=orthogonalEdgeStyle;rounded=0;orthogonalLoop=1;jettySize=auto;html=1;" edge="1" parent="1" source="-oJr7ti3T9aXIyevSBhr-16">
          <mxGeometry relative="1" as="geometry">
            <mxPoint x="250" y="620" as="targetPoint" />
          </mxGeometry>
        </mxCell>
        <mxCell id="-oJr7ti3T9aXIyevSBhr-16" value="סדיר" style="shape=table;startSize=30;container=1;collapsible=0;childLayout=tableLayout;fontStyle=1;align=center;" vertex="1" parent="1">
          <mxGeometry x="150" y="370" width="200" height="200" as="geometry" />
        </mxCell>
        <mxCell id="-oJr7ti3T9aXIyevSBhr-17" value="" style="shape=tableRow;horizontal=0;startSize=0;swimlaneHead=0;swimlaneBody=0;top=0;left=0;bottom=0;right=0;collapsible=0;dropTarget=0;fillColor=none;points=[[0,0.5],[1,0.5]];portConstraint=eastwest;" vertex="1" parent="-oJr7ti3T9aXIyevSBhr-16">
          <mxGeometry y="30" width="200" height="70" as="geometry" />
        </mxCell>
        <mxCell id="-oJr7ti3T9aXIyevSBhr-18" value="index" style="shape=partialRectangle;html=1;whiteSpace=wrap;connectable=0;fillColor=none;top=0;left=0;bottom=0;right=0;overflow=hidden;" vertex="1" parent="-oJr7ti3T9aXIyevSBhr-17">
          <mxGeometry width="67" height="70" as="geometry">
            <mxRectangle width="67" height="70" as="alternateBounds" />
          </mxGeometry>
        </mxCell>
        <mxCell id="-oJr7ti3T9aXIyevSBhr-19" value="ביקורת Id" style="shape=partialRectangle;html=1;whiteSpace=wrap;connectable=0;fillColor=none;top=0;left=0;bottom=0;right=0;overflow=hidden;" vertex="1" parent="-oJr7ti3T9aXIyevSBhr-17">
          <mxGeometry x="67" width="66" height="70" as="geometry">
            <mxRectangle width="66" height="70" as="alternateBounds" />
          </mxGeometry>
        </mxCell>
        <mxCell id="-oJr7ti3T9aXIyevSBhr-20" value="שאלה כמלל (דוח אחד כמה חיילים לא ממלאים )" style="shape=partialRectangle;html=1;whiteSpace=wrap;connectable=0;fillColor=none;top=0;left=0;bottom=0;right=0;overflow=hidden;" vertex="1" parent="-oJr7ti3T9aXIyevSBhr-17">
          <mxGeometry x="133" width="67" height="70" as="geometry">
            <mxRectangle width="67" height="70" as="alternateBounds" />
          </mxGeometry>
        </mxCell>
        <mxCell id="-oJr7ti3T9aXIyevSBhr-21" value="" style="shape=tableRow;horizontal=0;startSize=0;swimlaneHead=0;swimlaneBody=0;top=0;left=0;bottom=0;right=0;collapsible=0;dropTarget=0;fillColor=none;points=[[0,0.5],[1,0.5]];portConstraint=eastwest;" vertex="1" parent="-oJr7ti3T9aXIyevSBhr-16">
          <mxGeometry y="100" width="200" height="50" as="geometry" />
        </mxCell>
        <mxCell id="-oJr7ti3T9aXIyevSBhr-22" value="0" style="shape=partialRectangle;html=1;whiteSpace=wrap;connectable=0;fillColor=none;top=0;left=0;bottom=0;right=0;overflow=hidden;" vertex="1" parent="-oJr7ti3T9aXIyevSBhr-21">
          <mxGeometry width="67" height="50" as="geometry">
            <mxRectangle width="67" height="50" as="alternateBounds" />
          </mxGeometry>
        </mxCell>
        <mxCell id="-oJr7ti3T9aXIyevSBhr-23" value="0" style="shape=partialRectangle;html=1;whiteSpace=wrap;connectable=0;fillColor=none;top=0;left=0;bottom=0;right=0;overflow=hidden;" vertex="1" parent="-oJr7ti3T9aXIyevSBhr-21">
          <mxGeometry x="67" width="66" height="50" as="geometry">
            <mxRectangle width="66" height="50" as="alternateBounds" />
          </mxGeometry>
        </mxCell>
        <mxCell id="-oJr7ti3T9aXIyevSBhr-24" value="7 חיילים" style="shape=partialRectangle;html=1;whiteSpace=wrap;connectable=0;fillColor=none;top=0;left=0;bottom=0;right=0;overflow=hidden;" vertex="1" parent="-oJr7ti3T9aXIyevSBhr-21">
          <mxGeometry x="133" width="67" height="50" as="geometry">
            <mxRectangle width="67" height="50" as="alternateBounds" />
          </mxGeometry>
        </mxCell>
        <mxCell id="-oJr7ti3T9aXIyevSBhr-25" value="" style="shape=tableRow;horizontal=0;startSize=0;swimlaneHead=0;swimlaneBody=0;top=0;left=0;bottom=0;right=0;collapsible=0;dropTarget=0;fillColor=none;points=[[0,0.5],[1,0.5]];portConstraint=eastwest;" vertex="1" parent="-oJr7ti3T9aXIyevSBhr-16">
          <mxGeometry y="150" width="200" height="50" as="geometry" />
        </mxCell>
        <mxCell id="-oJr7ti3T9aXIyevSBhr-26" value="" style="shape=partialRectangle;html=1;whiteSpace=wrap;connectable=0;fillColor=none;top=0;left=0;bottom=0;right=0;overflow=hidden;" vertex="1" parent="-oJr7ti3T9aXIyevSBhr-25">
          <mxGeometry width="67" height="50" as="geometry">
            <mxRectangle width="67" height="50" as="alternateBounds" />
          </mxGeometry>
        </mxCell>
        <mxCell id="-oJr7ti3T9aXIyevSBhr-27" value="" style="shape=partialRectangle;html=1;whiteSpace=wrap;connectable=0;fillColor=none;top=0;left=0;bottom=0;right=0;overflow=hidden;" vertex="1" parent="-oJr7ti3T9aXIyevSBhr-25">
          <mxGeometry x="67" width="66" height="50" as="geometry">
            <mxRectangle width="66" height="50" as="alternateBounds" />
          </mxGeometry>
        </mxCell>
        <mxCell id="-oJr7ti3T9aXIyevSBhr-28" value="" style="shape=partialRectangle;html=1;whiteSpace=wrap;connectable=0;fillColor=none;top=0;left=0;bottom=0;right=0;overflow=hidden;" vertex="1" parent="-oJr7ti3T9aXIyevSBhr-25">
          <mxGeometry x="133" width="67" height="50" as="geometry">
            <mxRectangle width="67" height="50" as="alternateBounds" />
          </mxGeometry>
        </mxCell>
        <mxCell id="-oJr7ti3T9aXIyevSBhr-29" value="בסיס נתונים שאלונים" style="text;strokeColor=none;fillColor=none;html=1;fontSize=24;fontStyle=1;verticalAlign=middle;align=center;" vertex="1" parent="1">
          <mxGeometry x="260" y="320" width="100" height="40" as="geometry" />
        </mxCell>
        <mxCell id="-oJr7ti3T9aXIyevSBhr-31" value="שגרה" style="shape=table;startSize=30;container=1;collapsible=0;childLayout=tableLayout;fontStyle=1;align=center;" vertex="1" parent="1">
          <mxGeometry x="440" y="360" width="200" height="200" as="geometry" />
        </mxCell>
        <mxCell id="-oJr7ti3T9aXIyevSBhr-32" value="" style="shape=tableRow;horizontal=0;startSize=0;swimlaneHead=0;swimlaneBody=0;top=0;left=0;bottom=0;right=0;collapsible=0;dropTarget=0;fillColor=none;points=[[0,0.5],[1,0.5]];portConstraint=eastwest;" vertex="1" parent="-oJr7ti3T9aXIyevSBhr-31">
          <mxGeometry y="30" width="200" height="70" as="geometry" />
        </mxCell>
        <mxCell id="-oJr7ti3T9aXIyevSBhr-33" value="index" style="shape=partialRectangle;html=1;whiteSpace=wrap;connectable=0;fillColor=none;top=0;left=0;bottom=0;right=0;overflow=hidden;" vertex="1" parent="-oJr7ti3T9aXIyevSBhr-32">
          <mxGeometry width="67" height="70" as="geometry">
            <mxRectangle width="67" height="70" as="alternateBounds" />
          </mxGeometry>
        </mxCell>
        <mxCell id="-oJr7ti3T9aXIyevSBhr-34" value="ביקורת Id" style="shape=partialRectangle;html=1;whiteSpace=wrap;connectable=0;fillColor=none;top=0;left=0;bottom=0;right=0;overflow=hidden;" vertex="1" parent="-oJr7ti3T9aXIyevSBhr-32">
          <mxGeometry x="67" width="66" height="70" as="geometry">
            <mxRectangle width="66" height="70" as="alternateBounds" />
          </mxGeometry>
        </mxCell>
        <mxCell id="-oJr7ti3T9aXIyevSBhr-35" value="שאלה כמלל (דוח אחד כמה חיילים לא ממלאים )" style="shape=partialRectangle;html=1;whiteSpace=wrap;connectable=0;fillColor=none;top=0;left=0;bottom=0;right=0;overflow=hidden;" vertex="1" parent="-oJr7ti3T9aXIyevSBhr-32">
          <mxGeometry x="133" width="67" height="70" as="geometry">
            <mxRectangle width="67" height="70" as="alternateBounds" />
          </mxGeometry>
        </mxCell>
        <mxCell id="-oJr7ti3T9aXIyevSBhr-36" value="" style="shape=tableRow;horizontal=0;startSize=0;swimlaneHead=0;swimlaneBody=0;top=0;left=0;bottom=0;right=0;collapsible=0;dropTarget=0;fillColor=none;points=[[0,0.5],[1,0.5]];portConstraint=eastwest;" vertex="1" parent="-oJr7ti3T9aXIyevSBhr-31">
          <mxGeometry y="100" width="200" height="50" as="geometry" />
        </mxCell>
        <mxCell id="-oJr7ti3T9aXIyevSBhr-37" value="0" style="shape=partialRectangle;html=1;whiteSpace=wrap;connectable=0;fillColor=none;top=0;left=0;bottom=0;right=0;overflow=hidden;" vertex="1" parent="-oJr7ti3T9aXIyevSBhr-36">
          <mxGeometry width="67" height="50" as="geometry">
            <mxRectangle width="67" height="50" as="alternateBounds" />
          </mxGeometry>
        </mxCell>
        <mxCell id="-oJr7ti3T9aXIyevSBhr-38" value="0" style="shape=partialRectangle;html=1;whiteSpace=wrap;connectable=0;fillColor=none;top=0;left=0;bottom=0;right=0;overflow=hidden;" vertex="1" parent="-oJr7ti3T9aXIyevSBhr-36">
          <mxGeometry x="67" width="66" height="50" as="geometry">
            <mxRectangle width="66" height="50" as="alternateBounds" />
          </mxGeometry>
        </mxCell>
        <mxCell id="-oJr7ti3T9aXIyevSBhr-39" value="7 חיילים" style="shape=partialRectangle;html=1;whiteSpace=wrap;connectable=0;fillColor=none;top=0;left=0;bottom=0;right=0;overflow=hidden;" vertex="1" parent="-oJr7ti3T9aXIyevSBhr-36">
          <mxGeometry x="133" width="67" height="50" as="geometry">
            <mxRectangle width="67" height="50" as="alternateBounds" />
          </mxGeometry>
        </mxCell>
        <mxCell id="-oJr7ti3T9aXIyevSBhr-40" value="" style="shape=tableRow;horizontal=0;startSize=0;swimlaneHead=0;swimlaneBody=0;top=0;left=0;bottom=0;right=0;collapsible=0;dropTarget=0;fillColor=none;points=[[0,0.5],[1,0.5]];portConstraint=eastwest;" vertex="1" parent="-oJr7ti3T9aXIyevSBhr-31">
          <mxGeometry y="150" width="200" height="50" as="geometry" />
        </mxCell>
        <mxCell id="-oJr7ti3T9aXIyevSBhr-41" value="" style="shape=partialRectangle;html=1;whiteSpace=wrap;connectable=0;fillColor=none;top=0;left=0;bottom=0;right=0;overflow=hidden;" vertex="1" parent="-oJr7ti3T9aXIyevSBhr-40">
          <mxGeometry width="67" height="50" as="geometry">
            <mxRectangle width="67" height="50" as="alternateBounds" />
          </mxGeometry>
        </mxCell>
        <mxCell id="-oJr7ti3T9aXIyevSBhr-42" value="" style="shape=partialRectangle;html=1;whiteSpace=wrap;connectable=0;fillColor=none;top=0;left=0;bottom=0;right=0;overflow=hidden;" vertex="1" parent="-oJr7ti3T9aXIyevSBhr-40">
          <mxGeometry x="67" width="66" height="50" as="geometry">
            <mxRectangle width="66" height="50" as="alternateBounds" />
          </mxGeometry>
        </mxCell>
        <mxCell id="-oJr7ti3T9aXIyevSBhr-43" value="" style="shape=partialRectangle;html=1;whiteSpace=wrap;connectable=0;fillColor=none;top=0;left=0;bottom=0;right=0;overflow=hidden;" vertex="1" parent="-oJr7ti3T9aXIyevSBhr-40">
          <mxGeometry x="133" width="67" height="50" as="geometry">
            <mxRectangle width="67" height="50" as="alternateBounds" />
          </mxGeometry>
        </mxCell>
        <mxCell id="-oJr7ti3T9aXIyevSBhr-46" value="shere point list" style="text;strokeColor=none;fillColor=none;html=1;fontSize=24;fontStyle=1;verticalAlign=middle;align=center;" vertex="1" parent="1">
          <mxGeometry x="210" y="640" width="100" height="40" as="geometry" />
        </mxCell>
      </root>
    </mxGraphModel>
  </diagram>
</mxfile>
